:SAMPLES-PER-SECOND 30
:FRAME-RANGE 1-1700
:FULLY-SPECIFIED
:DEGREES
1222
root  -22.8525 41.5977 58.3312 165.35 33.3696 171.402
RightUpLeg  -0.730037 8.59686 -7.59717
RightLeg  41.6745 4.20922 3.71765
RightFoot  -8.9148 -0.207273 6.91436
RightToes  6.35937e-011 1.2921e-014 -6.02303e-014
Spine  15.8842 2.40294 1.40431
Spine1  -4.13548 1.04026 2.48151
HEad  -2.32711 24.3311 -15.8094
LeftShoulder1  2.96989 -10.3666 -15.1377
LeftArm  31.9047 -40.196 -87.7098
LeftForeArm  64.2943 3.24126 -16.1292
LeftHand  -0.122208 12.3205 -0.878172
RightShoulder  3.81412 9.40067 23.9882
RightArm  -17.1881 34.2677 69.7346
RightForeArm  96.3017 -3.76256 1.15879
RightHand  0.63696 -9.72489 -17.5304
LeftUpLeg  -96.8385 7.37613 -50.8992
LeftLeg  105.227 -1.42638 3.66634
LeftFoot  -31.8097 -0.470475 -3.66743
LeftToes  -1.9349e-011 5.45182e-011 1.33515e-010
1223
root  -22.5927 41.4659 57.5692 166.618 33.1012 171.75
RightUpLeg  -3.57959 10.4616 -6.81858
RightLeg  35.1004 3.27217 2.21574
RightFoot  -15.5396 0.149714 6.95518
RightToes  6.35937e-011 1.2921e-014 -6.02303e-014
Spine  17.642 2.38471 1.54287
Spine1  -4.36889 1.17171 2.39541
HEad  -4.44307 23.0473 -15.9122
LeftShoulder1  3.01751 -10.6223 -15.0742
LeftArm  31.9566 -40.4876 -87.9529
LeftForeArm  63.6067 3.33192 -16.1204
LeftHand  -0.117227 12.5612 -0.750851
RightShoulder  3.81331 9.57249 23.5585
RightArm  -16.724 34.8595 69.5427
RightForeArm  95.8349 -3.82991 1.42807
RightHand  0.607415 -9.56137 -17.4021
LeftUpLeg  -96.664 7.44768 -50.8195
LeftLeg  104.444 -1.13001 2.85308
LeftFoot  -31.4509 -0.543823 -4.13499
LeftToes  -1.9349e-011 5.45182e-011 1.33515e-010
1224
root  -22.3263 40.9157 56.8347 167.95 33.4719 172.219
RightUpLeg  -6.93352 10.7036 -6.04756
RightLeg  28.0691 2.82549 1.40411
RightFoot  -21.8478 0.62499 8.39879
RightToes  6.35937e-011 1.2921e-014 -6.02303e-014
Spine  19.5629 2.31688 1.82327
Spine1  -4.64925 1.41386 2.02738
HEad  -6.00172 22.3916 -16.2687
LeftShoulder1  2.99014 -10.6348 -14.8377
LeftArm  29.8788 -41.0244 -87.9462
LeftForeArm  64.8547 3.84814 -15.8431
LeftHand  -0.137585 12.6936 -1.03658
RightShoulder  3.86134 9.78787 23.4316
RightArm  -16.4475 35.3907 69.9567
RightForeArm  95.6903 -3.83216 1.40139
RightHand  0.57679 -9.34954 -17.4294
LeftUpLeg  -96.9337 7.9803 -49.9132
LeftLeg  104.499 -1.246 3.23058
LeftFoot  -31.1886 -0.53265 -4.1177
LeftToes  -1.9349e-011 5.45182e-011 1.33515e-010
1225
root  -21.9732 39.8994 56.0361 169.214 33.8854 172.587
RightUpLeg  -10.6708 9.26275 -5.15839
RightLeg  23.7417 2.96642 1.21045
RightFoot  -25.1914 1.24131 11.598
RightToes  6.35937e-011 1.2921e-014 -6.02303e-014
Spine  20.2491 2.21609 1.69366
Spine1  -3.91687 1.60674 1.65694
HEad  -6.14362 22.3509 -16.3785
LeftShoulder1  2.87334 -10.4378 -14.243
LeftArm  30.6137 -41.4936 -88.2958
LeftForeArm  65.3136 3.78428 -15.854
LeftHand  -0.157595 12.8633 -1.29743
RightShoulder  3.98821 10.1021 23.7021
RightArm  -16.0624 35.7499 70.1967
RightForeArm  95.1032 -3.89105 1.588
RightHand  0.520777 -9.0162 -17.2446
LeftUpLeg  -97.3619 8.47062 -48.5962
LeftLeg  105.218 -1.92479 5.26003
LeftFoot  -31.1366 -0.448019 -3.64232
LeftToes  -1.9349e-011 5.45182e-011 1.33515e-010
1226
root  -21.5112 38.5692 55.1173 169.087 33.6659 172.825
RightUpLeg  -12.5085 9.03258 -4.23346
RightLeg  22.9295 2.9533 1.15415
RightFoot  -25.5735 1.23071 11.2218
RightToes  6.35937e-011 1.2921e-014 -6.02303e-014
Spine  20.8447 2.2972 1.66396
Spine1  -2.9133 1.73771 1.56768
HEad  -4.36645 22.2648 -15.7005
LeftShoulder1  2.80321 -10.5141 -13.5571
LeftArm  30.947 -41.9162 -89.2421
LeftForeArm  67.3134 3.78368 -15.7712
LeftHand  -0.197576 13.129 -1.80746
RightShoulder  4.04777 10.1848 23.976
RightArm  -15.7444 35.6505 70.1337
RightForeArm  94.1765 -3.99088 1.92438
RightHand  0.542059 -9.10527 -17.4811
LeftUpLeg  -96.4574 9.47628 -47.1566
LeftLeg  106.549 -2.89061 7.69529
LeftFoot  -31.1579 -0.238724 -2.44161
LeftToes  -1.9349e-011 5.45182e-011 1.33515e-010
1227
root  -20.9056 37.178 54.1468 168.107 33.2977 174.133
RightUpLeg  -17.6984 12.0317 -1.63216
RightLeg  38.2153 0.194789 -0.111034
RightFoot  -17.3998 -0.037958 1.50839
RightToes  6.35937e-011 1.2921e-014 -6.02303e-014
Spine  21.8182 2.86258 2.25044
Spine1  -2.20844 1.72295 2.68978
HEad  -2.74682 22.4573 -15.5003
LeftShoulder1  2.73375 -10.2322 -13.4582
LeftArm  28.8826 -42.4362 -90.4883
LeftForeArm  72.6538 4.18592 -15.3343
LeftHand  -0.262528 13.5069 -2.58637
RightShoulder  4.06669 10.2217 24.0373
RightArm  -14.8459 35.8504 69.9006
RightForeArm  93.5637 -4.14557 2.6764
RightHand  0.472718 -8.70004 -17.1999
LeftUpLeg  -94.7237 11.7816 -45.0417
LeftLeg  108.129 -3.77545 9.41157
LeftFoot  -31.1442 0.0538177 -0.767342
LeftToes  -1.9349e-011 5.45182e-011 1.33515e-010
1228
root  -20.4683 35.6647 53.2105 166.383 30.648 175.406
RightUpLeg  -19.1892 10.1942 -0.536774
RightLeg  50.4374 -0.282203 -0.727852
RightFoot  -23.817 0.0981206 2.37443
RightToes  6.35937e-011 1.2921e-014 -6.02303e-014
Spine  22.7071 1.50576 1.74582
Spine1  0.753327 0.534284 2.95757
HEad  -2.97768 23.2022 -14.4072
LeftShoulder1  2.72654 -10.9754 -12.2387
LeftArm  33.9717 -42.9824 -90.4078
LeftForeArm  68.2913 3.24165 -15.9747
LeftHand  -0.206927 13.4134 -1.85161
RightShoulder  4.06515 10.032 24.4758
RightArm  -15.0483 36.8988 70.0615
RightForeArm  93.7406 -4.05113 2.16226
RightHand  0.533711 -8.948 -17.9427
LeftUpLeg  -91.614 12.078 -45.562
LeftLeg  107.295 -5.34777 14.1341
LeftFoot  -30.7663 0.224027 0.225306
LeftToes  -1.9349e-011 5.45182e-011 1.33515e-010
1229
root  -19.95 34.7307 52.053 166.328 26.0157 175.671
RightUpLeg  -19.1915 6.75543 -1.34027
RightLeg  57.1819 -0.649557 -1.53706
RightFoot  -29.8976 0.363688 3.47008
RightToes  6.35937e-011 1.2921e-014 -6.02303e-014
Spine  20.7189 0.725707 -0.479934
Spine1  2.62943 -1.28619 5.2536
HEad  -2.81848 23.1082 -14.0045
LeftShoulder1  2.93874 -11.3446 -13.3056
LeftArm  32.5083 -43.2557 -90.0621
LeftForeArm  68.9849 3.48941 -15.8411
LeftHand  -0.195478 13.4104 -1.69347
RightShoulder  3.9092 9.43972 24.6779
RightArm  -14.3177 37.3227 69.0019
RightForeArm  93.8287 -4.16747 2.88087
RightHand  0.534811 -8.99887 -17.7413
LeftUpLeg  -88.7789 9.53159 -47.547
LeftLeg  106.151 -4.68888 13.1747
LeftFoot  -30.6083 0.0436652 -0.829459
LeftToes  -1.9349e-011 5.45182e-011 1.33515e-010
1230
root  -19.5909 34.3628 50.924 166.706 24.3443 176.676
RightUpLeg  -17.629 5.05107 -0.87198
RightLeg  59.4978 -0.66652 -1.71559
RightFoot  -33.4318 0.491647 3.68565
RightToes  6.35937e-011 1.2921e-014 -6.02303e-014
Spine  21.2268 0.843559 0.0923889
Spine1  0.78363 -1.1127 5.62536
HEad  -2.68425 22.3494 -13.2427
LeftShoulder1  3.06514 -11.5966 -13.8651
LeftArm  34.0304 -42.648 -90.9234
LeftForeArm  68.4225 3.18087 -15.9947
LeftHand  -0.183073 13.5844 -1.47583
RightShoulder  3.74713 8.99286 24.4624
RightArm  -13.2956 36.7465 67.536
RightForeArm  92.7907 -4.44569 4.26565
RightHand  0.494762 -8.72928 -17.7725
LeftUpLeg  -88.8208 7.78426 -47.2672
LeftLeg  105.636 -3.49719 9.98662
LeftFoot  -30.6257 -0.139737 -1.90859
LeftToes  -1.9349e-011 5.45182e-011 1.33515e-010
1231
root  -19.3101 34.6966 49.7701 166.526 24.5564 176.239
RightUpLeg  -14.5783 4.1467 -1.89271
RightLeg  57.9012 -0.0135057 -0.483331
RightFoot  -34.5808 0.448617 3.32877
RightToes  6.35937e-011 1.2921e-014 -6.02303e-014
Spine  20.6033 1.342 0.429497
Spine1  0.555739 -0.342284 4.56746
HEad  -3.33062 22.2559 -12.9003
LeftShoulder1  2.97376 -11.3006 -13.6367
LeftArm  34.7113 -42.4527 -91.522
LeftForeArm  68.0534 3.14172 -16.0244
LeftHand  -0.176905 13.7062 -1.36255
RightShoulder  3.80225 9.20732 24.3769
RightArm  -13.9257 36.4616 67.4907
RightForeArm  92.556 -4.39217 3.87667
RightHand  0.501142 -8.71868 -18.0312
LeftUpLeg  -90.3795 7.50113 -46.9777
LeftLeg  104.712 -3.1062 9.3048
LeftFoot  -30.7735 -0.156915 -1.99941
LeftToes  -1.9349e-011 5.45182e-011 1.33515e-010
1232
root  -19.0879 35.6564 48.4711 166.482 24.3446 175.712
RightUpLeg  -9.73836 1.58746 -3.92469
RightLeg  52.4156 1.55135 1.78382
RightFoot  -33.3147 0.309868 2.76543
RightToes  6.35937e-011 1.2921e-014 -6.02303e-014
Spine  19.4262 1.80654 0.380668
Spine1  -0.343997 -0.00589619 4.8439
HEad  -2.1875 22.5314 -13.4939
LeftShoulder1  2.92482 -11.0394 -13.6705
LeftArm  33.7198 -42.1888 -91.8016
LeftForeArm  68.377 3.31021 -15.9427
LeftHand  -0.187281 13.7088 -1.50093
RightShoulder  3.78396 9.20348 24.2326
RightArm  -15.0116 36.2742 68.0514
RightForeArm  93.8732 -4.16165 2.8584
RightHand  0.521799 -8.88025 -17.897
LeftUpLeg  -91.9608 7.02877 -46.8132
LeftLeg  104.456 -3.61945 11.1414
LeftFoot  -30.9666 -0.119067 -1.76746
LeftToes  -1.9349e-011 5.45182e-011 1.33515e-010
1233
root  -18.8964 37.0076 47.0393 166.649 25.0376 175.065
RightUpLeg  -4.64489 1.31697 -5.75529
RightLeg  45.348 3.15422 3.10226
RightFoot  -29.0264 0.431062 4.03812
RightToes  6.35937e-011 1.2921e-014 -6.02303e-014
Spine  17.7906 2.50735 1.02778
Spine1  -1.67844 0.746934 4.68983
HEad  0.779299 22.9961 -13.8854
LeftShoulder1  2.88499 -10.797 -13.7465
LeftArm  33.1697 -41.6056 -91.1098
LeftForeArm  67.3717 3.284 -15.9923
LeftHand  -0.175914 13.1686 -1.48489
RightShoulder  3.71776 9.09464 23.9489
RightArm  -14.4345 35.0744 68.533
RightForeArm  93.7076 -4.27984 3.52127
RightHand  0.509452 -8.92149 -17.3261
LeftUpLeg  -94.7689 7.56378 -47.0158
LeftLeg  106.05 -4.01725 11.29
LeftFoot  -31.2465 -0.129661 -1.81231
LeftToes  -1.9349e-011 5.45182e-011 1.33515e-010
1234
root  -18.7817 38.4661 45.6361 166.213 26.5656 173.601
RightUpLeg  -1.23595 4.20158 -7.43714
RightLeg  40.0757 3.7396 3.08829
RightFoot  -21.8674 0.462138 6.6219
RightToes  6.35937e-011 1.2921e-014 -6.02303e-014
Spine  16.478 2.83576 1.99539
Spine1  -2.58031 1.43888 2.93026
HEad  3.67972 24.5021 -13.7661
LeftShoulder1  2.75391 -10.1939 -13.6861
LeftArm  33.0688 -40.7073 -88.6955
LeftForeArm  64.1509 3.17818 -16.1595
LeftHand  -0.206249 12.8373 -2.03165
RightShoulder  3.82034 9.33107 24.2144
RightArm  -14.3014 33.8439 69.906
RightForeArm  94.0866 -4.28047 3.63098
RightHand  0.558542 -9.22646 -17.4336
LeftUpLeg  -98.0591 9.35777 -47.8837
LeftLeg  108.167 -3.80494 9.47015
LeftFoot  -31.72 -0.101834 -1.63082
LeftToes  -1.9349e-011 5.45182e-011 1.33515e-010
1235
root  -18.7654 39.9487 44.2568 166.124 26.6436 172.84
RightUpLeg  0.193843 5.57981 -8.41966
RightLeg  37.8435 2.76047 2.02839
RightFoot  -12.1074 -0.0300167 7.8114
RightToes  6.35937e-011 1.2921e-014 -6.02303e-014
Spine  15.2948 2.42656 2.70598
Spine1  -3.2355 1.10056 2.67437
HEad  5.53136 26.0419 -14.6315
LeftShoulder1  2.69999 -9.86801 -13.7922
LeftArm  27.7211 -40.2584 -86.4534
LeftForeArm  65.7925 4.06504 -15.6956
LeftHand  -0.196101 12.175 -2.12209
RightShoulder  3.89344 9.46888 24.4743
RightArm  -15.4715 33.2463 71.4835
RightForeArm  95.9792 -3.99056 2.42238
RightHand  0.628577 -9.77073 -17.1516
LeftUpLeg  -99.0375 10.2688 -48.4402
LeftLeg  109.605 -3.02343 6.84913
LeftFoot  -32.5138 -0.205296 -2.14805
LeftToes  -1.9349e-011 5.45182e-011 1.33515e-010
1236
root  -18.801 41.1196 43.0732 166.118 25.4708 172.766
RightUpLeg  -0.899985 6.13252 -7.64839
RightLeg  40.2326 -1.67278 -1.80619
RightFoot  -3.66796 -0.234984 3.12986
RightToes  6.35937e-011 1.2921e-014 -6.02303e-014
Spine  14.7412 2.01113 2.85877
Spine1  -3.32524 0.557864 3.75619
HEad  6.19818 26.3639 -15.7312
LeftShoulder1  2.76994 -9.96438 -14.208
LeftArm  27.3574 -40.3121 -85.9188
LeftForeArm  64.9118 4.04778 -15.7426
LeftHand  -0.178171 11.802 -1.96905
RightShoulder  3.86165 9.25521 24.7531
RightArm  -16.3207 33.2026 71.6295
RightForeArm  97.0346 -3.81627 1.67959
RightHand  0.658141 -10.0435 -16.9044
LeftUpLeg  -98.071 10.3003 -48.0644
LeftLeg  109.564 -2.35773 5.19884
LeftFoot  -32.768 -0.235268 -2.28867
LeftToes  -1.9349e-011 5.45182e-011 1.33515e-010
